<?xml version="1.0" standalone="no"?>
<!DOCTYPE svg PUBLIC "-//W3C//DTD SVG 20010904//EN"
 "http://www.w3.org/TR/2001/REC-SVG-20010904/DTD/svg10.dtd">
<svg version="1.0" xmlns="http://www.w3.org/2000/svg"
 width="466.000000pt" height="466.000000pt" viewBox="0 0 466.000000 466.000000"
 preserveAspectRatio="xMidYMid meet">
<metadata>
Created by potrace 1.16, written by Peter Selinger 2001-2019
</metadata>
<g transform="translate(0.000000,466.000000) scale(0.100000,-0.100000)"
fill="#000000" stroke="none">
<path d="M2210 2305 l0 -1575 55 0 55 0 0 1575 0 1575 -55 0 -55 0 0 -1575z"/>
<path d="M2965 3318 c-3 -18 -39 -343 -80 -723 -42 -379 -82 -749 -90 -822 -8
-73 -15 -137 -15 -143 0 -6 44 -10 123 -10 l124 0 12 123 c7 67 31 302 55 522
l43 400 71 -110 c39 -60 152 -236 250 -389 98 -154 183 -281 188 -283 5 -1
119 171 254 382 135 212 248 385 252 385 10 0 12 -17 92 -810 l21 -215 128 -3
127 -3 0 28 c0 16 -4 64 -10 108 -5 44 -34 316 -65 605 -104 992 -103 990
-115 990 -8 0 -98 -138 -513 -783 -131 -204 -162 -246 -172 -235 -12 12 -236
356 -530 815 -72 111 -133 202 -137 203 -4 0 -10 -15 -13 -32z"/>
<path d="M800 3321 c-167 -37 -275 -91 -398 -198 -117 -103 -202 -235 -248
-388 -25 -83 -27 -103 -27 -265 -1 -148 3 -187 20 -251 78 -282 302 -508 583
-589 113 -33 332 -39 460 -12 183 38 293 96 422 224 49 47 88 90 88 95 0 5
-45 40 -100 78 l-100 68 -62 -59 c-80 -76 -146 -117 -239 -151 -65 -23 -90
-26 -204 -27 -103 -1 -141 3 -185 18 -102 35 -154 68 -236 150 -127 127 -177
253 -178 451 0 196 55 338 184 466 119 119 234 164 415 163 166 -2 298 -57
412 -174 l52 -53 83 57 c130 89 123 83 107 103 -112 147 -250 238 -427 284
-114 30 -312 35 -422 10z"/>
</g>
</svg>
